<svg width="498" height="283" viewBox="0 0 498 283" fill="none" xmlns="http://www.w3.org/2000/svg">
<g clip-path="url(#clip0_1_6)">
<path d="M497.733 127.487C497.355 127.361 496.915 127.282 496.522 127.314C466.869 129.253 437.389 133.209 407.72 134.817C406.73 134.832 405.739 134.864 404.765 134.88C400.315 133.508 399.953 128.165 401.085 124.335C402.39 119.716 405.849 116.233 408.349 112.276C408.617 111.851 407.327 111.173 407.202 111.11C404.67 109.88 401.856 109.329 399.104 108.872C396.117 108.446 392.925 107.957 389.954 108.73C389.608 108.809 389.372 108.998 389.246 109.297C388.161 110.905 387.454 112.702 386.872 114.546C385.96 117.825 384.875 121.277 384.64 124.729C380.803 132.263 373.822 135.794 371.841 134.549C366.92 125.296 393.224 101.905 374.168 102.425C367.722 102.598 361.559 108.257 358.32 111.677C358.839 109.234 358.225 100.912 356.244 99.5087C353.006 97.2231 347.267 100.454 344.783 103.134C342.833 105.23 345.663 105.94 346.04 108.036C346.103 111.504 344.452 114.656 343.195 115.287C341.434 114.593 339.909 113.537 338.777 112.213C340.962 102.409 335.695 99.6505 327.755 102.456C326.843 102.772 323.164 103.607 322.849 104.773C322.818 104.899 322.818 105.041 322.881 105.183C322.881 105.183 322.897 105.199 322.912 105.215C323.007 105.625 323.18 106.097 323.447 106.649C317.802 108.336 312.724 111.551 309.171 116.327C307.897 118.187 306.372 120.426 305.067 122.79C305.067 122.79 305.067 122.806 305.067 122.821C304.863 123.2 304.658 123.578 304.47 123.956C301.608 129.079 296.986 133.54 294.549 134.344C292.002 130.387 302.662 109.124 311.105 95.6784C316.529 87.0563 332.991 60.9063 369.42 57.7538C392.485 55.752 412.862 68.7876 417.987 82.1069C419.953 93.4559 404.623 97.1758 395.928 97.3335C395.268 94.0706 399.513 92.1003 401.919 90.8235C404.953 91.3595 408.365 92.2895 411.337 91.2334C413.585 88.8217 413.208 87.6868 410.157 86.741C403.004 83.8407 388.649 85.8741 384.561 92.9988C383.13 99.1777 396.227 99.4614 400.252 99.8555C420.849 100.959 440.738 88.4434 416.494 72.1292C391.164 54.885 371.59 54.7274 354.185 58.8414C321.906 66.4862 308.479 85.4012 297.74 103.307C297.74 103.307 297.74 103.323 297.725 103.339C296.938 102.094 295.461 101.432 292.961 101.715C278.024 103.418 269.329 115.98 265.87 125.47C265.729 125.911 265.572 126.463 265.415 127.077C264.707 130.387 261.201 133.43 258.324 133.461C256.295 132.247 255.588 129.473 256.405 127.456C259.267 120.315 269.361 110.022 269.99 105.514C267.93 103.954 263.952 105.278 261.531 105.625C253.937 96.0094 239.032 107.942 231.611 117.573C216.91 136.629 230.542 146.891 246.5 132.578C249.503 139.561 256.264 139.325 260.745 137.512C262.176 136.929 263.779 136.125 265.383 135.211C266.295 137.228 268.323 138.647 272.395 138.379C278.386 138.001 282.725 135.747 286.184 132.247C285.948 136.062 287.143 138.379 290.272 138.379C295.335 138.379 299.203 137.307 302.866 134.848C304.988 138.474 311.482 140.192 320.271 135.699C323.777 133.902 332.362 127.944 336.685 118.518C339.311 119.306 341.858 119.653 344.279 119.432C341.308 127.771 335.49 134.832 332.472 136.787C336.324 137.402 345.553 137.685 349.342 136.629C353.116 131.207 356.48 121.671 357.549 115.917C359.012 113.033 360.883 111.141 364.31 109.786C377.171 104.71 347.471 138.237 368.068 138.789C375.552 138.978 382.486 136.992 388.35 133.776C388.649 133.95 388.963 134.107 389.262 134.249C392.485 135.778 395.96 136.819 399.45 137.575C405.676 139.01 412.107 139.293 418.459 138.71C428.6 137.733 438.615 135.873 448.662 134.233C464.967 131.396 481.397 129.489 497.843 127.739C498.189 127.708 498 127.566 497.78 127.487H497.733ZM237.177 131.444C233.199 126.21 244.142 113.238 251.987 110.952C254.629 115.886 244.472 128.543 237.177 131.444ZM275.729 130.718C273.7 122.743 284.423 112.261 290.995 110.952C293.118 116.926 283.15 128.858 275.729 130.718ZM313.557 132.2C309.532 126.053 321.136 114.357 326.277 110.858C326.702 111.378 327.157 111.898 327.629 112.402C328.447 118.818 321.89 127.865 313.557 132.2Z" fill="white"/>
<path d="M394.938 147.49C398.711 147.773 403.46 147.931 407.437 149.098C404.717 150.721 408.648 151.698 410.11 151.556C414.025 152.376 438.018 145.346 422.17 145.047C391.149 145.378 360.034 143.628 328.981 143.943C285.917 144.905 242.821 146.308 199.867 149.697C214.111 129.142 227.774 107.185 233.104 82.4221C236.343 71.1519 238.812 58.4316 228.812 49.778C216.784 39.6269 198.782 37.7985 181.204 38.6181C185.465 27.3322 189.867 16.1093 194.474 4.94942C194.081 3.13674 184.789 1.82845 182.697 2.19099C182.242 2.22251 181.172 2.23827 180.968 2.80572C179.663 6.54144 178.484 10.3244 177.32 14.1074C174.71 22.5404 172.226 30.9891 169.773 39.4693C166.33 39.8161 162.981 40.2101 159.742 40.6357C163.642 30.6265 167.667 20.6646 171.849 10.7658C173.091 8.0704 174.27 5.32772 175.151 2.49047C173.17 0.267961 167.667 -0.0315267 164.601 -1.66614e-06C164.192 0.0315233 163.217 0.0472859 163.044 0.567448C160.717 7.55024 158.249 14.4857 155.985 21.5001C153.878 28.3095 151.771 35.1661 149.664 42.0386C146.991 42.543 144.334 43.1262 141.693 43.7882C146.661 30.6738 151.724 17.6067 157.07 4.63417C157.07 3.6569 152.62 2.66386 151.504 2.56929C150.041 2.33285 148.516 2.15946 147.038 2.28556C146.63 2.31709 145.765 2.33285 145.576 2.82149C140.639 15.6206 137.227 28.9242 133.375 42.0859C132.935 43.5991 132.479 45.0965 132.039 46.6097C118.203 51.2124 105.137 58.1952 94.4932 68.2201C86.6634 75.1241 75.2801 92.8884 84.0691 102.393C89.3519 107.295 101.16 107.201 108.251 107.737C109.87 107.737 111.505 107.674 113.14 107.611C107.622 124.918 102.072 142.209 96.6944 159.548C89.2104 160.431 81.7264 161.377 74.2267 162.48C53.3785 166.436 28.1278 170.818 7.62547 187.968C-4.05648 197.741 -6.71361 231.047 32.3887 236.958C46.3347 239.07 59.4317 238.644 71.4281 236.721C69.6514 241.75 67.859 246.778 66.0038 251.79C62.9378 259.939 60.1078 268.231 56.1928 276.017C55.1866 277.861 53.9287 279.548 52.7181 281.25C52.5766 281.455 52.6552 281.55 52.8439 281.707C53.0483 281.849 53.2684 281.975 53.5042 282.054C55.4538 282.779 57.6078 283.126 59.6832 283.032C59.809 283.032 60.7524 282.968 60.7209 282.653C60.0291 278.508 60.5323 274.315 61.57 270.28C64.2428 259.829 67.8748 249.662 71.3809 239.464C71.7268 238.487 72.057 237.509 72.4029 236.532C78.0002 235.586 83.3459 234.325 88.44 232.828C85.72 240.362 82.9528 247.834 80.1542 255.195C81.6793 255.684 88.723 257.733 89.3991 255.778C87.8268 251.743 88.5344 247.329 89.3048 243.2C90.2324 239.306 91.2858 235.445 92.4021 231.598C102.417 228.351 111.317 224.3 118.911 220.281C115.782 230.196 112.559 240.063 109.194 249.899C107.653 254.233 106.301 258.663 104.32 262.84C103.628 264.243 102.826 265.598 102.15 267.017C102.04 267.253 102.638 267.568 102.732 267.616C103.062 267.789 103.408 267.931 103.754 268.041C105.955 268.719 108.313 269.129 110.625 269.003C110.75 269.003 111.945 268.924 111.867 268.562C109.666 260.397 112.103 252.074 113.989 244.098C116.253 235.728 118.675 227.39 121.175 219.067C127.684 215.505 133.14 212.053 137.416 209.295C171.456 187.227 183.452 170.062 198.153 152.029C240.525 148.719 282.898 147.316 325.396 146.166C348.603 145.961 371.794 146.639 394.985 147.521L394.938 147.49ZM168.877 42.7479C163.925 60.0236 159.208 77.3624 154.554 94.7169C149.192 97.6329 143.469 99.7294 137.573 101.085C144.35 81.8389 151.284 62.656 158.626 43.6464C161.865 43.2996 165.324 42.9843 168.877 42.7479ZM153.17 99.8712C148.218 118.361 143.265 136.85 138.077 155.276C131.41 155.875 124.728 156.506 118.062 157.168C124.162 139.687 130.168 122.144 136.316 104.663C142.039 103.449 147.683 101.857 153.186 99.8712H153.17ZM148.799 44.8916C142.998 63.8697 137.165 83.0369 131.269 102.22C127.385 102.756 123.47 102.992 119.539 102.929C122.778 94.1179 126.064 85.3382 129.413 76.5585C133.108 66.6439 136.819 56.7135 140.561 46.8146C143.265 46.0265 146.016 45.396 148.799 44.8916ZM107.527 101.857C98.534 101.069 96.7573 92.7308 98.078 85.1333C99.2101 78.3396 103.109 72.539 107.48 67.3847C113.958 60.0867 122.024 54.3806 130.891 50.3927C125.687 67.8891 120.216 85.3067 114.665 102.708C112.276 102.519 109.886 102.251 107.512 101.857H107.527ZM117.936 107.295C122.008 106.996 126.096 106.507 130.152 105.829C124.822 123.137 119.429 140.428 113.926 157.594C109.068 158.098 104.194 158.634 99.3358 159.186C105.436 141.847 111.615 124.54 117.951 107.28L117.936 107.295ZM45.2027 232.024C27.2788 229.344 15.8484 215.946 22.7507 194.178C29.6372 172.426 63.441 166.815 72.6859 165.601C80.39 164.356 88.0941 163.284 95.8297 162.307C95.1536 164.482 94.4775 166.641 93.8172 168.816C87.1193 190.143 80.2642 211.438 72.8903 232.544C63.7869 233.695 54.7149 233.458 45.2184 232.024H45.2027ZM73.8022 232.434C81.9937 208.948 90.1223 185.446 98.361 161.975C103.267 161.361 108.172 160.793 113.077 160.242C105.609 183.46 97.9208 206.394 89.9022 228.73C84.4622 230.479 79.1322 231.693 73.8179 232.418L73.8022 232.434ZM93.5813 227.5C99.949 206.678 108.424 186.486 115.059 165.758C115.75 163.772 116.442 161.786 117.134 159.8C123.879 159.075 130.608 158.413 137.369 157.767C136.74 160.005 136.111 162.259 135.467 164.497C130.781 180.969 125.97 197.41 120.892 213.771C111.238 219.824 102.245 224.348 93.5813 227.5ZM124.885 211.233C124.303 211.612 123.753 211.958 123.171 212.321C126.929 200.073 130.828 187.873 134.696 175.657C136.661 169.589 138.627 163.52 140.576 157.452C155.45 156.049 170.339 154.725 185.213 153.18C164.852 179.614 150.953 194.052 124.869 211.233H124.885ZM186.927 150.894C171.692 152.36 156.535 153.621 141.378 154.977C147.652 135.605 153.941 116.248 160.466 96.9552C175.025 90.6186 188.248 81.4449 198.546 69.2132C199.867 67.7315 201.25 66.3286 202.665 64.9415C203.011 64.5947 203.357 64.2007 202.885 63.7909C198.106 62.5299 192.618 64.4844 187.996 65.8557C185.355 66.6439 183.059 68.2044 181.848 70.7579C180.386 73.4217 178.704 75.9437 176.739 78.2766C172.619 82.6113 167.934 86.347 162.95 89.6571C168.358 73.8316 173.94 58.0848 179.804 42.4327C198.389 42.6691 216.627 47.5712 218.954 68.1728C219.646 74.4463 218.372 80.6725 217.099 86.7884C213.262 110.495 200.558 131.554 186.927 150.894Z" fill="white"/>
</g>
<defs>
<clipPath id="clip0_1_6">
<rect width="498" height="283" fill="white"/>
</clipPath>
</defs>
</svg>
