<svg width="1370" height="231" viewBox="0 0 1370 231" fill="none" xmlns="http://www.w3.org/2000/svg">
<g clip-path="url(#clip0_19_2)">
<path d="M629.664 230.934C650.032 230.47 669.085 224.73 685.553 215.06C678.723 210.446 670.732 207.322 661.924 206.052C657.138 205.368 613.617 213.79 533.049 231H629.664V230.934Z" fill="white"/>
<path d="M123.89 0.0662334V0H0V231H123.89V230.934C186.521 229.521 236.862 178.4 236.862 115.5C236.862 52.6004 186.521 1.47921 123.89 0.0662334Z" fill="white"/>
<path d="M505.983 149.721L552.125 139.984L552.766 146.31L553.407 152.635L506.713 162.448L505.784 162.647V184.946L517.223 182.44L521.069 200.444L506.779 203.458L505.773 203.668V211.671C664.289 177.119 664.985 177.969 687.354 187.761C694.383 190.829 700.705 194.814 706.341 199.462C715.569 190.774 723.361 180.596 729.329 169.293C725.593 169.845 721.791 170.43 717.868 171.059C693.676 174.933 679.308 175.85 667.538 174.26C653.712 172.406 644.307 173.498 609.141 181.049L567.21 190.057L565.53 181.292L563.85 172.527L625.641 158.386C671.882 147.811 712.618 137.202 741.928 128.228C742.392 124.033 742.646 119.783 742.646 115.467C742.646 52.5672 692.305 1.45714 629.675 0.0331218V-0.0331116H505.784V149.732L505.994 149.687L505.983 149.721ZM556.932 192.596L542.653 195.62L528.363 198.645L526.65 189.703L524.937 180.762L553.075 174.591L554.998 183.599L556.921 192.596H556.932Z" fill="white"/>
<path d="M1112.47 86.4898L1024.67 0.518828V231H1255.93V0H1110.74L1112.47 86.4898Z" fill="white"/>
<path d="M1369.99 0H1281.31V231H1369.99V0Z" fill="white"/>
<path d="M377.031 225.58C388.713 215.104 403.323 208.149 424.333 203.027L445.265 197.939L447.42 206.957L449.575 215.976L411.413 224.388C398.35 227.269 386.547 229.686 379.33 230.989H417.37L465.136 220.557C467.91 219.95 470.64 219.354 473.347 218.769L469.258 211.693L456.659 214.353L454.946 205.412L453.233 196.481L459.654 195.068L346.871 0L213.354 231H372.146C372.798 229.808 374.611 227.755 377.02 225.591L377.031 225.58Z" fill="white"/>
<path d="M883.656 0C819.788 0 768.021 51.7062 768.021 115.5C768.021 116.858 768.076 118.205 768.12 119.551C770.088 118.823 771.955 118.105 773.668 117.421C809.222 103.17 842.764 79.8444 873.576 47.9419C882.794 38.3933 890.839 30.4453 891.425 30.2797C892.022 30.1031 900.51 67.0944 910.29 112.464L928.062 194.969L920.237 191.668C866.559 169.006 830.044 160.837 778.642 163.906C796.977 203.513 837.072 231.011 883.634 231.011C947.491 231.011 999.268 179.305 999.268 115.511C999.268 51.7172 947.513 0 883.656 0Z" fill="white"/>
</g>
<defs>
<clipPath id="clip0_19_2">
<rect width="1370" height="231" fill="white"/>
</clipPath>
</defs>
</svg>
